<?xml version="1.0" standalone="no"?>
<!DOCTYPE svg PUBLIC "-//W3C//DTD SVG 20010904//EN"
 "http://www.w3.org/TR/2001/REC-SVG-20010904/DTD/svg10.dtd">
<svg version="1.0" xmlns="http://www.w3.org/2000/svg"
 width="2024.000000pt" height="2024.000000pt" viewBox="0 0 2024.000000 2024.000000"
 preserveAspectRatio="xMidYMid meet">
<metadata>
Created by potrace 1.14, written by Peter Selinger 2001-2017
</metadata>
<g transform="translate(0.000000,2024.000000) scale(0.100000,-0.100000)"
fill="#000000" stroke="none">
<path d="M9855 18783 c-139 -119 -190 -168 -677 -660 -70 -70 -485 -486 -923
-923 -438 -437 -912 -914 -1053 -1060 -141 -146 -900 -908 -1686 -1695 -1322
-1323 -1564 -1569 -1686 -1714 -25 -29 -50 -59 -57 -66 -41 -43 -213 -283
-257 -359 -107 -183 -242 -461 -311 -641 -15 -38 -35 -90 -45 -115 -58 -146
-152 -494 -185 -690 -10 -61 -25 -159 -30 -205 -3 -27 -8 -59 -10 -70 -19 -95
-27 -648 -12 -820 9 -96 17 -170 23 -206 2 -15 6 -44 9 -65 4 -34 11 -73 40
-229 3 -16 21 -95 41 -175 126 -512 320 -949 627 -1410 110 -165 114 -170 207
-272 218 -238 565 -592 1218 -1242 944 -940 1477 -1472 1642 -1642 85 -87 193
-193 240 -234 177 -157 391 -371 640 -640 148 -160 246 -256 435 -425 118
-106 220 -209 275 -278 25 -31 155 -164 289 -294 368 -359 613 -604 741 -743
219 -238 408 -418 556 -532 l62 -47 68 48 c112 79 277 227 464 416 586 593
4839 4852 5193 5200 349 343 602 673 826 1077 85 155 206 417 253 548 62 177
126 382 143 458 2 9 15 67 28 127 14 61 32 155 42 210 9 55 18 111 20 124 2
14 7 54 11 90 3 36 8 74 10 84 18 98 26 522 11 652 -4 39 -10 93 -12 120 -3
28 -7 66 -10 85 -2 19 -7 55 -10 80 -3 25 -8 56 -10 70 -2 14 -7 45 -10 70
-20 149 -86 426 -149 627 -104 328 -297 715 -498 998 -39 55 -107 150 -150
212 -44 61 -113 153 -154 204 -77 96 -1221 1251 -4219 4255 -1505 1508 -1727
1726 -1775 1748 -30 14 -64 26 -75 26 -11 0 -61 -35 -110 -77z"/>
</g>
</svg>
